<?xml version="1.0" encoding="utf-8"?>
<!-- Generator: Adobe Illustrator 24.3.0, SVG Export Plug-In . SVG Version: 6.00 Build 0)  -->
<svg version="1.1" id="Layer_1" xmlns="http://www.w3.org/2000/svg" xmlns:xlink="http://www.w3.org/1999/xlink" x="0px" y="0px"
	 viewBox="0 0 500 500" style="enable-background:new 0 0 500 500;" xml:space="preserve">
<style type="text/css">
	.st0{fill:#BFE1FF;}
	.st1{fill-rule:evenodd;clip-rule:evenodd;fill:#BFE1FF;}
	.st2{fill-rule:evenodd;clip-rule:evenodd;fill:#59B2FF;}
	.st3{fill-rule:evenodd;clip-rule:evenodd;fill:#FCCB37;}
	.st4{fill-rule:evenodd;clip-rule:evenodd;fill:#FFFFFF;}
	.st5{fill-rule:evenodd;clip-rule:evenodd;fill:#2C81FE;}
	.st6{fill-rule:evenodd;clip-rule:evenodd;fill:#12006C;}
	.st7{fill-rule:evenodd;clip-rule:evenodd;fill:#FF75CA;}
	.st8{fill:#12006C;}
	.st9{fill:#FFFFFF;}
	.st10{fill:#2C81FE;}
	.st11{fill:#E33BA3;}
	.st12{fill:#59B2FF;}
</style>
<g>
	<g>
		<path class="st0" d="M254.22,428.76c-100.29,0-181.87-81.59-181.87-181.87S153.94,65.01,254.22,65.01
			c100.29,0,181.87,81.59,181.87,181.87S354.51,428.76,254.22,428.76z M254.22,66.79c-99.3,0-180.09,80.79-180.09,180.09
			s80.79,180.09,180.09,180.09s180.09-80.79,180.09-180.09S353.53,66.79,254.22,66.79z"/>
	</g>
	<g>
		<circle class="st1" cx="250" cy="252.49" r="180.98"/>
	</g>
	<g>
		<g>
			<g>
				<g>
					<g>
						<path class="st2" d="M363.89,445.98h66.17c1.12,0,2.04,0.92,2.04,2.04l0,0c0,1.12-0.92,2.04-2.04,2.04h-66.17
							c-1.12,0-2.04-0.92-2.04-2.04l0,0C361.85,446.89,362.77,445.98,363.89,445.98z"/>
					</g>
					<g>
						<path class="st2" d="M438.75,445.98h22.18c1.12,0,2.04,0.92,2.04,2.04l0,0c0,1.12-0.92,2.04-2.04,2.04h-22.18
							c-1.12,0-2.04-0.92-2.04-2.04l0,0C436.71,446.89,437.62,445.98,438.75,445.98z"/>
					</g>
				</g>
				<g>
					<g>
						<path class="st1" d="M450.67,435.45h3.32c1.12,0,2.04,0.92,2.04,2.04l0,0c0,1.12-0.92,2.04-2.04,2.04h-3.32
							c-1.12,0-2.04-0.92-2.04-2.04l0,0C448.62,436.36,449.54,435.45,450.67,435.45z"/>
					</g>
					<g>
						<path class="st1" d="M438.32,435.45h3.32c1.13,0,2.04,0.92,2.04,2.04l0,0c0,1.12-0.92,2.04-2.04,2.04h-3.32
							c-1.12,0-2.04-0.92-2.04-2.04l0,0C436.27,436.36,437.19,435.45,438.32,435.45z"/>
					</g>
					<g>
						<path class="st1" d="M418.56,435.45h10.73c1.12,0,2.04,0.92,2.04,2.04l0,0c0,1.12-0.92,2.04-2.04,2.04h-10.73
							c-1.12,0-2.04-0.92-2.04-2.04l0,0C416.52,436.36,417.44,435.45,418.56,435.45z"/>
					</g>
					<g>
						<path class="st1" d="M391.41,435.45h17.76c1.12,0,2.04,0.92,2.04,2.04l0,0c0,1.12-0.92,2.04-2.04,2.04h-17.76
							c-1.12,0-2.04-0.92-2.04-2.04l0,0C389.37,436.36,390.29,435.45,391.41,435.45z"/>
					</g>
				</g>
				<g>
					<g>
						<path class="st1" d="M431.96,456.51h3.32c1.12,0,2.04,0.92,2.04,2.04l0,0c0,1.12-0.92,2.04-2.04,2.04h-3.32
							c-1.12,0-2.04-0.92-2.04-2.04l0,0C429.92,457.43,430.84,456.51,431.96,456.51z"/>
					</g>
					<g>
						<path class="st1" d="M419.61,456.51h3.32c1.12,0,2.04,0.92,2.04,2.04l0,0c0,1.12-0.92,2.04-2.04,2.04h-3.32
							c-1.12,0-2.04-0.92-2.04-2.04l0,0C417.57,457.43,418.49,456.51,419.61,456.51z"/>
					</g>
					<g>
						<path class="st1" d="M399.86,456.51h10.73c1.12,0,2.04,0.92,2.04,2.04l0,0c0,1.12-0.92,2.04-2.04,2.04h-10.73
							c-1.12,0-2.05-0.92-2.05-2.04l0,0C397.82,457.43,398.74,456.51,399.86,456.51z"/>
					</g>
					<g>
						<path class="st1" d="M372.71,456.51h17.76c1.12,0,2.04,0.92,2.04,2.04l0,0c0,1.12-0.92,2.04-2.04,2.04h-17.76
							c-1.12,0-2.04-0.92-2.04-2.04l0,0C370.66,457.43,371.58,456.51,372.71,456.51z"/>
					</g>
				</g>
			</g>
			<g>
				<g>
					<g>
						<path class="st2" d="M47.55,143.48V77.31c0-1.12,0.92-2.04,2.04-2.04l0,0c1.12,0,2.04,0.92,2.04,2.04v66.17
							c0,1.12-0.92,2.04-2.04,2.04l0,0C48.47,145.52,47.55,144.6,47.55,143.48z"/>
					</g>
					<g>
						<path class="st2" d="M47.55,68.62V46.44c0-1.12,0.92-2.04,2.04-2.04l0,0c1.12,0,2.04,0.92,2.04,2.04v22.18
							c0,1.12-0.92,2.04-2.04,2.04l0,0C48.47,70.66,47.55,69.74,47.55,68.62z"/>
					</g>
				</g>
				<g>
					<g>
						<path class="st1" d="M37.02,56.7v-3.32c0-1.12,0.92-2.04,2.04-2.04l0,0c1.12,0,2.04,0.92,2.04,2.04v3.32
							c0,1.12-0.92,2.04-2.04,2.04l0,0C37.94,58.75,37.02,57.83,37.02,56.7z"/>
					</g>
					<g>
						<path class="st1" d="M37.02,69.05v-3.32c0-1.12,0.92-2.04,2.04-2.04l0,0c1.12,0,2.04,0.92,2.04,2.04v3.32
							c0,1.12-0.92,2.04-2.04,2.04l0,0C37.94,71.1,37.02,70.18,37.02,69.05z"/>
					</g>
					<g>
						<path class="st1" d="M37.02,88.81V78.08c0-1.12,0.92-2.04,2.04-2.04l0,0c1.12,0,2.04,0.92,2.04,2.04v10.72
							c0,1.12-0.92,2.04-2.04,2.04l0,0C37.94,90.85,37.02,89.93,37.02,88.81z"/>
					</g>
					<g>
						<path class="st1" d="M37.02,115.96V98.2c0-1.12,0.92-2.04,2.04-2.04l0,0c1.12,0,2.04,0.92,2.04,2.04v17.76
							c0,1.12-0.92,2.04-2.04,2.04l0,0C37.94,118,37.02,117.08,37.02,115.96z"/>
					</g>
				</g>
				<g>
					<g>
						<path class="st1" d="M58.08,75.41v-3.32c0-1.12,0.92-2.04,2.04-2.04l0,0c1.12,0,2.04,0.92,2.04,2.04v3.32
							c0,1.12-0.92,2.04-2.04,2.04l0,0C59,77.45,58.08,76.53,58.08,75.41z"/>
					</g>
					<g>
						<path class="st1" d="M58.08,87.75v-3.32c0-1.12,0.92-2.04,2.04-2.04l0,0c1.12,0,2.04,0.92,2.04,2.04v3.32
							c0,1.13-0.92,2.04-2.04,2.04l0,0C59,89.8,58.08,88.88,58.08,87.75z"/>
					</g>
					<g>
						<path class="st1" d="M58.08,107.51V96.78c0-1.12,0.92-2.04,2.04-2.04l0,0c1.12,0,2.04,0.92,2.04,2.04v10.73
							c0,1.12-0.92,2.04-2.04,2.04l0,0C59,109.55,58.08,108.63,58.08,107.51z"/>
					</g>
					<g>
						<path class="st1" d="M58.08,134.66V116.9c0-1.12,0.92-2.04,2.04-2.04l0,0c1.12,0,2.04,0.92,2.04,2.04v17.76
							c0,1.12-0.92,2.04-2.04,2.04l0,0C59,136.71,58.08,135.79,58.08,134.66z"/>
					</g>
				</g>
			</g>
		</g>
		<g>
			<g>
				<g>
					<path class="st1" d="M326.74,61.74v-3.32c0-1.12,0.92-2.04,2.04-2.04l0,0c1.12,0,2.04,0.92,2.04,2.04v3.32
						c0,1.12-0.92,2.04-2.04,2.04l0,0C327.66,63.78,326.74,62.86,326.74,61.74z"/>
				</g>
				<g>
					<path class="st3" d="M340.65,61.74v-3.32c0-1.12,0.92-2.04,2.04-2.04l0,0c1.12,0,2.04,0.92,2.04,2.04v3.32
						c0,1.12-0.92,2.04-2.04,2.04l0,0C341.57,63.78,340.65,62.86,340.65,61.74z"/>
				</g>
				<g>
					<path class="st1" d="M354.56,61.74v-3.32c0-1.12,0.92-2.04,2.04-2.04l0,0c1.12,0,2.04,0.92,2.04,2.04v3.32
						c0,1.12-0.92,2.04-2.04,2.04l0,0C355.48,63.78,354.56,62.86,354.56,61.74z"/>
				</g>
				<g>
					<path class="st1" d="M368.47,61.74v-3.32c0-1.12,0.92-2.04,2.04-2.04l0,0c1.12,0,2.04,0.92,2.04,2.04v3.32
						c0,1.12-0.92,2.04-2.04,2.04l0,0C369.39,63.78,368.47,62.86,368.47,61.74z"/>
				</g>
				<g>
					<path class="st1" d="M382.38,61.74v-3.32c0-1.12,0.92-2.04,2.04-2.04l0,0c1.12,0,2.04,0.92,2.04,2.04v3.32
						c0,1.12-0.92,2.04-2.04,2.04l0,0C383.3,63.78,382.38,62.86,382.38,61.74z"/>
				</g>
			</g>
			<g>
				<g>
					<path class="st1" d="M65.12,375.78h3.32c1.12,0,2.04,0.92,2.04,2.04l0,0c0,1.12-0.92,2.04-2.04,2.04h-3.32
						c-1.12,0-2.04-0.92-2.04-2.04l0,0C63.08,376.7,64,375.78,65.12,375.78z"/>
				</g>
				<g>
					<path class="st3" d="M65.12,389.69h3.32c1.12,0,2.04,0.92,2.04,2.04l0,0c0,1.13-0.92,2.04-2.04,2.04h-3.32
						c-1.12,0-2.04-0.92-2.04-2.04l0,0C63.08,390.61,64,389.69,65.12,389.69z"/>
				</g>
				<g>
					<path class="st1" d="M65.12,403.6h3.32c1.12,0,2.04,0.92,2.04,2.04l0,0c0,1.12-0.92,2.04-2.04,2.04h-3.32
						c-1.12,0-2.04-0.92-2.04-2.04l0,0C63.08,404.52,64,403.6,65.12,403.6z"/>
				</g>
				<g>
					<path class="st1" d="M65.12,417.51h3.32c1.12,0,2.04,0.92,2.04,2.04l0,0c0,1.12-0.92,2.04-2.04,2.04h-3.32
						c-1.12,0-2.04-0.92-2.04-2.04l0,0C63.08,418.42,64,417.51,65.12,417.51z"/>
				</g>
				<g>
					<path class="st1" d="M65.12,431.42h3.32c1.12,0,2.04,0.92,2.04,2.04l0,0c0,1.12-0.92,2.04-2.04,2.04h-3.32
						c-1.12,0-2.04-0.92-2.04-2.04l0,0C63.08,432.34,64,431.42,65.12,431.42z"/>
				</g>
			</g>
		</g>
	</g>
	<g>
		<g>
			<path class="st4" d="M135.32,175.73L135.32,175.73c1.42,0,2.58,1.16,2.58,2.58v26.43c0,1.42-1.16,2.58-2.58,2.58l0,0
				c-1.42,0-2.58-1.16-2.58-2.58v-26.43C132.74,176.89,133.9,175.73,135.32,175.73z"/>
		</g>
		<g>
			<path class="st4" d="M130.3,186.94L130.3,186.94c1.34,0,2.44,1.1,2.44,2.45v14.36c0-1.34-1.1-2.44-2.44-2.44l0,0
				c-1.34,0-2.44,1.1-2.44,2.44v-14.36C127.86,188.04,128.96,186.94,130.3,186.94z"/>
		</g>
		<g>
			<path class="st4" d="M124.39,188.18L124.39,188.18c1.91,0,3.47,1.56,3.47,3.47v21.22c0,1.91-1.56,3.46-3.47,3.46l0,0
				c-1.91,0-3.47-1.56-3.47-3.46v-21.22C120.92,189.74,122.48,188.18,124.39,188.18z"/>
		</g>
		<g>
			<path class="st4" d="M117.46,188.03L117.46,188.03c1.91,0,3.46,1.56,3.46,3.47v12.21c0-1.91-1.56-3.47-3.46-3.47l0,0
				c-1.91,0-3.47,1.56-3.47,3.47V191.5C113.99,189.59,115.55,188.03,117.46,188.03z"/>
		</g>
		<g>
			<path class="st4" d="M108.15,188.03L108.15,188.03c3.21,0,5.84,2.63,5.84,5.85V206c0,3.21-2.63,5.84-5.84,5.84l0,0
				c-3.22,0-5.85-2.63-5.85-5.84v-12.12C102.3,190.67,104.93,188.03,108.15,188.03z"/>
		</g>
		<g>
			<g>
				<path class="st5" d="M132.32,139.52c12.7,7.33,15.82,25.72,6.96,41.07c-8.86,15.35-26.34,21.84-39.05,14.51l-5.58-3.22
					l0.48-0.83c-8.27-8.79-9.37-24-1.86-37.02c7.52-13.02,21.24-19.67,32.99-16.9l0.48-0.82L132.32,139.52z"/>
			</g>
			<g>
				<path class="st6" d="M135.65,185.82c-4.56,5.54-10.36,9.39-16.4,11.17l-20.67-11.93l8.94-15.48L135.65,185.82z"/>
			</g>
			<g>
				<g>
					<path class="st2" d="M126.74,136.3c12.7,7.33,15.82,25.72,6.96,41.07c-8.86,15.35-26.34,21.84-39.05,14.51
						c-12.7-7.34-15.82-25.72-6.96-41.07C96.55,135.46,114.03,128.96,126.74,136.3z"/>
				</g>
				<g>
					<path class="st7" d="M122.8,143.11c9.59,5.54,11.94,19.41,5.25,31c-6.69,11.58-19.88,16.49-29.47,10.95
						c-9.59-5.54-11.94-19.42-5.25-31C100.02,142.48,113.21,137.58,122.8,143.11z"/>
					<path class="st8" d="M107.24,187.78c-3.21,0-6.19-0.79-8.88-2.34c-4.75-2.74-7.93-7.55-8.95-13.54
						c-1.01-5.96,0.24-12.37,3.53-18.07c4.72-8.17,13.04-13.45,21.2-13.45c3.2,0,6.19,0.79,8.88,2.34
						c9.79,5.65,12.22,19.83,5.42,31.61C123.72,182.5,115.4,187.78,107.24,187.78z M114.15,141.28c-7.85,0-15.87,5.1-20.43,13.01
						c-3.18,5.51-4.4,11.72-3.42,17.47c0.97,5.72,3.99,10.31,8.51,12.92c2.55,1.47,5.39,2.22,8.43,2.22
						c7.85,0,15.87-5.11,20.43-13.01c6.55-11.35,4.27-24.99-5.09-30.39C120.03,142.03,117.19,141.28,114.15,141.28z"/>
				</g>
				<g>
					<path class="st9" d="M89.64,152.38c-0.08,0-0.15-0.02-0.22-0.06c-0.21-0.12-0.29-0.4-0.16-0.61c0.39-0.67,0.8-1.33,1.22-1.96
						c0.14-0.21,0.41-0.26,0.62-0.12s0.26,0.41,0.12,0.62c-0.41,0.62-0.81,1.26-1.19,1.91C89.95,152.3,89.8,152.38,89.64,152.38z
						 M92.16,148.59c-0.09,0-0.19-0.03-0.27-0.09c-0.2-0.15-0.23-0.43-0.09-0.63c8.88-11.71,23.09-15.75,33.8-9.61
						c0.21,0.12,0.29,0.39,0.17,0.61c-0.12,0.21-0.4,0.29-0.61,0.16c-10.31-5.92-24.04-1.98-32.64,9.37
						C92.42,148.53,92.29,148.59,92.16,148.59z"/>
				</g>
				<g>
					<path class="st10" d="M106.45,192.7c-3.74,0-7.39-0.9-10.66-2.79c-0.21-0.12-0.29-0.4-0.16-0.61c0.12-0.21,0.4-0.28,0.61-0.16
						c10.35,5.97,24.58,1.66,33.11-10.03c0.15-0.2,0.42-0.24,0.62-0.1c0.2,0.15,0.24,0.42,0.1,0.62
						C123.95,188.01,114.97,192.7,106.45,192.7z M130.98,177.94c-0.08,0-0.17-0.02-0.24-0.07c-0.21-0.13-0.27-0.41-0.14-0.62
						c0.26-0.41,0.51-0.82,0.76-1.24c0.12-0.21,0.4-0.29,0.61-0.16c0.21,0.12,0.29,0.4,0.16,0.61c-0.25,0.43-0.51,0.86-0.78,1.27
						C131.27,177.87,131.12,177.94,130.98,177.94z"/>
				</g>
				<g>
					<g>
						<path class="st11" d="M107.79,184.09c-2.47,0-4.86-0.57-7.01-1.7c-3.85-2.03-6.6-5.66-7.75-10.24
							c-0.06-0.24,0.09-0.48,0.32-0.54c0.24-0.06,0.48,0.09,0.54,0.32c1.08,4.33,3.68,7.76,7.29,9.67
							c3.69,1.94,8.12,2.12,12.47,0.51c7.95-2.95,13.85-11.17,14.36-19.99c0.01-0.24,0.23-0.42,0.47-0.42
							c0.25,0.01,0.43,0.23,0.42,0.47c-0.52,9.16-6.67,17.71-14.94,20.78C111.91,183.7,109.82,184.09,107.79,184.09z M92.92,166.48
							c-0.01,0-0.02,0-0.03,0c-0.25-0.01-0.43-0.22-0.42-0.47c0.52-9.16,6.66-17.71,14.94-20.78c4.59-1.7,9.27-1.51,13.19,0.56
							c3.85,2.03,6.6,5.66,7.74,10.24c0.06,0.24-0.09,0.48-0.32,0.54c-0.24,0.06-0.48-0.09-0.54-0.33
							c-1.08-4.33-3.67-7.76-7.29-9.67c-3.69-1.94-8.12-2.12-12.46-0.51c-7.95,2.95-13.85,11.17-14.36,19.99
							C93.35,166.3,93.16,166.48,92.92,166.48z"/>
					</g>
					<g>
						<path class="st11" d="M127.99,159.56c-0.81,0-1.45-0.56-1.6-1.4c-0.17-1.02,0.45-2.1,1.42-2.46c1-0.37,2.05,0.24,2.23,1.29
							c0.17,1.02-0.45,2.1-1.42,2.46C128.41,159.53,128.2,159.56,127.99,159.56z M128.45,156.47c-0.1,0-0.21,0.02-0.32,0.06
							c-0.56,0.21-0.95,0.89-0.85,1.48c0.09,0.51,0.54,0.78,1.04,0.6c0.56-0.21,0.95-0.89,0.85-1.48
							C129.1,156.73,128.81,156.47,128.45,156.47z"/>
					</g>
					<g>
						<path class="st11" d="M92.94,172.59c-0.81,0-1.45-0.56-1.6-1.4c-0.17-1.02,0.45-2.1,1.42-2.46c1.01-0.38,2.05,0.23,2.23,1.28
							c0.17,1.02-0.45,2.1-1.42,2.46C93.36,172.55,93.15,172.59,92.94,172.59z M93.4,169.5c-0.1,0-0.21,0.02-0.32,0.06
							c-0.56,0.21-0.95,0.88-0.85,1.48c0.09,0.51,0.55,0.78,1.04,0.6c0.56-0.21,0.95-0.89,0.85-1.48
							C94.05,169.76,93.76,169.5,93.4,169.5z"/>
					</g>
				</g>
				<g>
					<g>
						<path class="st4" d="M110.34,148.25l7.75,4.47c1.54,0.89,2.64,1.62,3.3,2.21c0.67,0.6,1.15,1.3,1.47,2.13
							c0.31,0.83,0.43,1.77,0.36,2.81c-0.07,1.04-0.4,2.07-0.98,3.08c-0.63,1.09-1.46,1.96-2.47,2.58
							c-1.02,0.63-2.07,0.93-3.17,0.91c0.93,1.1,1.43,2.33,1.48,3.7c0.05,1.37-0.31,2.73-1.09,4.08c-0.62,1.07-1.42,1.99-2.41,2.76
							c-0.99,0.77-2.02,1.25-3.08,1.45c-1.05,0.19-2.14,0.06-3.27-0.4c-0.7-0.29-2.3-1.15-4.81-2.57l-6.6-3.81L110.34,148.25
							L110.34,148.25z M112.02,154.4l-3.11,5.39l2.56,1.48c1.52,0.88,2.48,1.4,2.88,1.56c0.72,0.29,1.41,0.32,2.06,0.08
							c0.65-0.24,1.19-0.74,1.62-1.49c0.42-0.72,0.59-1.4,0.52-2.05c-0.07-0.64-0.4-1.2-1-1.67c-0.36-0.28-1.46-0.95-3.29-2.01
							L112.02,154.4L112.02,154.4z M106.66,163.69l-3.62,6.28l3.63,2.09c1.41,0.81,2.33,1.28,2.77,1.41
							c0.66,0.21,1.31,0.17,1.96-0.12c0.65-0.29,1.22-0.84,1.7-1.68c0.41-0.71,0.61-1.38,0.61-2.04c0-0.65-0.2-1.25-0.6-1.78
							c-0.4-0.53-1.5-1.32-3.28-2.34L106.66,163.69z"/>
					</g>
					<g>
						
							<rect x="111.79" y="149.38" transform="matrix(0.4995 -0.8663 0.8663 0.4995 -73.1984 174.3176)" class="st4" width="4.95" height="2.27"/>
					</g>
					<g>
						
							<rect x="115.71" y="151.64" transform="matrix(0.5002 -0.8659 0.8659 0.5002 -73.2174 178.7046)" class="st4" width="4.95" height="2.27"/>
					</g>
					<g>
						
							<rect x="98.28" y="172.78" transform="matrix(0.5002 -0.8659 0.8659 0.5002 -100.2355 174.1645)" class="st4" width="4.95" height="2.27"/>
					</g>
					<g>
						
							<rect x="102.2" y="175.05" transform="matrix(0.4997 -0.8662 0.8662 0.4997 -100.2343 178.8182)" class="st4" width="4.95" height="2.26"/>
					</g>
				</g>
			</g>
		</g>
		<g>
			<path class="st9" d="M111.69,198.57c-4.15,0-8.13-1.03-11.69-3.09c-0.21-0.12-0.29-0.4-0.16-0.61c0.12-0.21,0.4-0.29,0.61-0.16
				c6.03,3.48,13.34,3.92,20.59,1.22c7.28-2.7,13.62-8.23,17.85-15.56c0.12-0.21,0.4-0.29,0.61-0.16c0.21,0.12,0.29,0.4,0.16,0.61
				c-4.34,7.51-10.84,13.18-18.31,15.95C118.11,197.97,114.85,198.57,111.69,198.57z"/>
		</g>
		<g>
			<path class="st4" d="M124.39,219.2L124.39,219.2c1.91,0,3.47,1.56,3.47,3.47v0.76c0,1.91-1.56,3.47-3.47,3.47l0,0
				c-1.91,0-3.47-1.56-3.47-3.47v-0.76C120.92,220.76,122.48,219.2,124.39,219.2z"/>
		</g>
	</g>
	<g>
		<g>
			<path class="st4" d="M404.64,215.78L404.64,215.78c1.42,0,2.58,1.16,2.58,2.58v26.43c0,1.42-1.16,2.58-2.58,2.58h0
				c-1.42,0-2.58-1.16-2.58-2.58v-26.43C402.07,216.94,403.23,215.78,404.64,215.78z"/>
		</g>
		<g>
			<path class="st4" d="M399.62,226.99L399.62,226.99c1.34,0,2.44,1.1,2.44,2.44v14.37c0-1.34-1.1-2.44-2.44-2.44l0,0
				c-1.34,0-2.44,1.1-2.44,2.44v-14.37C397.18,228.09,398.28,226.99,399.62,226.99z"/>
		</g>
		<g>
			<path class="st4" d="M393.71,228.23L393.71,228.23c1.91,0,3.46,1.56,3.46,3.46v21.22c0,1.91-1.56,3.47-3.46,3.47l0,0
				c-1.91,0-3.47-1.56-3.47-3.47v-21.22C390.25,229.79,391.81,228.23,393.71,228.23z"/>
		</g>
		<g>
			<path class="st4" d="M386.78,228.08L386.78,228.08c1.9,0,3.46,1.56,3.46,3.46v12.21c0-1.91-1.56-3.47-3.46-3.47l0,0
				c-1.91,0-3.47,1.56-3.47,3.47v-12.21C383.32,229.64,384.88,228.08,386.78,228.08z"/>
		</g>
		<g>
			<path class="st4" d="M377.47,217.32L377.47,217.32c3.22,0,5.85,2.63,5.85,5.84v22.89c0,3.21-2.63,5.85-5.85,5.85l0,0
				c-3.21,0-5.84-2.63-5.84-5.85v-22.89C371.63,219.95,374.25,217.32,377.47,217.32z"/>
		</g>
		<g>
			<path class="st4" d="M393.71,259.25L393.71,259.25c1.91,0,3.46,1.56,3.46,3.46v0.76c0,1.91-1.56,3.47-3.46,3.47l0,0
				c-1.91,0-3.47-1.56-3.47-3.47v-0.76C390.25,260.81,391.81,259.25,393.71,259.25z"/>
		</g>
		<g>
			<g>
				<path class="st5" d="M407.46,231.39c-7.45,8.13-23.71,5.36-36.33-6.18c-12.62-11.55-16.81-27.5-9.36-35.64l3.27-3.57l0.68,0.62
					c8.34-4.14,21.67-0.66,32.38,9.14c10.71,9.8,15.34,22.77,11.96,31.45l0.68,0.62L407.46,231.39z"/>
			</g>
			<g>
				<path class="st6" d="M366.88,220.79c-4.45-5.27-7.31-11.05-8.36-16.43l12.11-13.23l12.73,11.65L366.88,220.79z"/>
			</g>
			<g>
				<g>
					<path class="st2" d="M410.73,227.82c-7.44,8.13-23.71,5.36-36.32-6.19c-12.62-11.55-16.81-27.5-9.37-35.64
						c7.45-8.13,23.71-5.36,36.32,6.19C413.98,203.73,418.17,219.69,410.73,227.82z"/>
				</g>
				<g>
					<path class="st7" d="M405.13,222.69c-5.62,6.14-17.9,4.05-27.42-4.67c-9.52-8.72-12.69-20.76-7.07-26.9
						c5.62-6.14,17.9-4.05,27.42,4.67C407.58,204.51,410.75,216.55,405.13,222.69z"/>
					<path class="st8" d="M396.14,226.66c-6.04,0-13.05-3.1-18.73-8.31c-4.67-4.27-7.99-9.47-9.34-14.63
						c-1.38-5.23-0.58-9.81,2.25-12.9c2.2-2.4,5.42-3.67,9.32-3.67c6.05,0,13.05,3.11,18.73,8.31c4.67,4.27,7.99,9.47,9.34,14.63
						c1.37,5.23,0.58,9.81-2.25,12.9C403.26,225.39,400.04,226.66,396.14,226.66z M379.63,188.05c-3.64,0-6.64,1.17-8.66,3.38
						c-2.61,2.85-3.34,7.14-2.04,12.07c1.31,5,4.54,10.04,9.08,14.2c5.52,5.06,12.3,8.08,18.13,8.08c3.64,0,6.64-1.17,8.66-3.38
						c2.61-2.85,3.34-7.14,2.04-12.07c-1.31-5-4.54-10.04-9.08-14.2C392.24,191.07,385.46,188.05,379.63,188.05z"/>
				</g>
				<g>
					<path class="st9" d="M408.79,226.49c-0.11,0-0.21-0.04-0.3-0.12c-0.18-0.17-0.19-0.45-0.03-0.63
						c5.97-6.56,3.66-18.72-5.49-28.9c-0.16-0.18-0.15-0.46,0.03-0.63c0.18-0.16,0.46-0.15,0.63,0.03
						c9.46,10.53,11.77,23.19,5.48,30.1C409.03,226.44,408.91,226.49,408.79,226.49z M401.81,195.4c-0.11,0-0.23-0.04-0.32-0.13
						c-0.51-0.51-1.03-1.01-1.57-1.51c-0.18-0.17-0.19-0.45-0.03-0.63c0.17-0.18,0.45-0.19,0.63-0.03c0.55,0.5,1.08,1.02,1.6,1.54
						c0.17,0.18,0.17,0.46,0,0.63C402.04,195.36,401.92,195.4,401.81,195.4z"/>
				</g>
				<g>
					<path class="st10" d="M375.55,220.83c-0.11,0-0.22-0.04-0.3-0.12c-0.35-0.33-0.7-0.66-1.04-0.99
						c-0.18-0.17-0.18-0.45-0.01-0.63c0.17-0.18,0.45-0.18,0.63-0.01c0.33,0.33,0.67,0.65,1.02,0.97c0.18,0.17,0.19,0.45,0.03,0.63
						C375.79,220.78,375.67,220.83,375.55,220.83z M373,218.29c-0.12,0-0.24-0.05-0.33-0.14c-9.77-10.56-12.36-23.75-6.02-30.67
						c0.17-0.18,0.45-0.2,0.63-0.03c0.18,0.17,0.19,0.45,0.03,0.63c-6.02,6.58-3.43,19.25,6.02,29.47c0.17,0.18,0.16,0.46-0.03,0.63
						C373.21,218.25,373.11,218.29,373,218.29z"/>
				</g>
				<g>
					<g>
						<path class="st11" d="M394.83,223.59c-0.49,0-0.99-0.03-1.51-0.07c-0.25-0.02-0.42-0.24-0.4-0.49
							c0.02-0.25,0.25-0.43,0.49-0.4c3.77,0.36,6.91-0.69,8.84-2.96c2.02-2.38,2.56-5.88,1.51-9.87
							c-1.91-7.27-8.59-14.41-16.25-17.36c-0.23-0.09-0.34-0.35-0.26-0.58c0.09-0.23,0.35-0.34,0.58-0.25
							c7.91,3.04,14.81,10.43,16.79,17.96c1.12,4.28,0.52,8.06-1.69,10.67C401.07,222.43,398.23,223.59,394.83,223.59z
							 M388.1,222.24c-0.05,0-0.11-0.01-0.16-0.03c-7.91-3.04-14.81-10.43-16.79-17.96c-1.12-4.28-0.52-8.07,1.7-10.67
							c2.12-2.5,5.54-3.66,9.6-3.27c0.25,0.02,0.43,0.24,0.4,0.49c-0.02,0.24-0.24,0.43-0.49,0.4c-3.77-0.36-6.91,0.69-8.84,2.96
							c-2.02,2.38-2.56,5.89-1.51,9.87c1.91,7.27,8.59,14.41,16.25,17.36c0.23,0.09,0.35,0.35,0.26,0.58
							C388.45,222.13,388.28,222.24,388.1,222.24z"/>
					</g>
					<g>
						<path class="st11" d="M392.64,224.63c-0.09,0-0.19-0.01-0.29-0.03c-0.88-0.15-1.75-0.94-1.98-1.81
							c-0.12-0.45-0.05-0.86,0.19-1.17c0.27-0.36,0.72-0.52,1.28-0.42c0.88,0.15,1.75,0.94,1.98,1.81c0.12,0.45,0.05,0.87-0.18,1.17
							C393.4,224.47,393.05,224.63,392.64,224.63z M391.54,222.07c-0.09,0-0.21,0.02-0.28,0.1c-0.06,0.08-0.07,0.23-0.03,0.4
							c0.14,0.53,0.73,1.07,1.26,1.16c0.15,0.02,0.32,0.04,0.42-0.09c0.06-0.08,0.08-0.23,0.03-0.4c-0.14-0.53-0.73-1.07-1.26-1.16
							C391.63,222.07,391.58,222.07,391.54,222.07z"/>
					</g>
					<g>
						<path class="st11" d="M384.23,192.64c-0.09,0-0.19-0.01-0.29-0.03c-0.88-0.15-1.75-0.95-1.98-1.81
							c-0.12-0.45-0.05-0.87,0.19-1.17c0.27-0.36,0.72-0.52,1.28-0.42c0.88,0.15,1.75,0.95,1.98,1.81c0.12,0.45,0.05,0.87-0.19,1.17
							C384.99,192.48,384.64,192.64,384.23,192.64z M383.13,190.08c-0.09,0-0.21,0.02-0.28,0.1c-0.06,0.08-0.08,0.23-0.03,0.4
							c0.14,0.52,0.73,1.06,1.27,1.16c0.15,0.03,0.32,0.04,0.42-0.09c0.06-0.08,0.07-0.23,0.03-0.4c-0.14-0.53-0.73-1.07-1.26-1.16
							C383.22,190.08,383.18,190.08,383.13,190.08z"/>
					</g>
				</g>
				<g>
					<g>
						<path class="st4" d="M401.7,211.17l-4.54,4.96c-0.9,0.98-1.63,1.66-2.2,2.03c-0.58,0.37-1.23,0.55-1.98,0.57
							c-0.75,0.01-1.58-0.16-2.48-0.52c-0.9-0.36-1.77-0.92-2.6-1.68c-0.9-0.82-1.58-1.74-2.05-2.73c-0.47-1-0.64-1.94-0.52-2.81
							c-1.04,0.44-2.15,0.48-3.34,0.13c-1.19-0.35-2.35-1.04-3.46-2.05c-0.88-0.8-1.61-1.71-2.2-2.73c-0.59-1.02-0.93-1.99-1-2.9
							c-0.08-0.9,0.13-1.74,0.62-2.52c0.31-0.48,1.19-1.53,2.64-3.14l3.87-4.22L401.7,211.17L401.7,211.17z M396.2,210.76
							l-4.44-4.06l-1.5,1.64c-0.89,0.97-1.42,1.6-1.6,1.88c-0.32,0.5-0.4,1.04-0.24,1.64c0.16,0.6,0.54,1.17,1.16,1.74
							c0.6,0.55,1.17,0.88,1.74,1.01c0.56,0.13,1.08,0.02,1.53-0.33c0.27-0.21,0.95-0.9,2.02-2.08L396.2,210.76L396.2,210.76z
							 M388.57,203.77l-5.16-4.72l-2.13,2.32c-0.83,0.9-1.31,1.51-1.46,1.83c-0.23,0.47-0.25,1.01-0.06,1.61
							c0.2,0.61,0.63,1.23,1.32,1.85c0.58,0.53,1.15,0.89,1.72,1.08c0.57,0.19,1.1,0.2,1.6,0.03c0.5-0.17,1.27-0.83,2.31-1.97
							L388.57,203.77z"/>
					</g>
					<g>
						
							<rect x="398.55" y="211.3" transform="matrix(0.6758 -0.7371 0.7371 0.6758 -28.014 363.6852)" class="st4" width="1.7" height="4.78"/>
					</g>
					<g>
						
							<rect x="396.25" y="213.81" transform="matrix(0.6751 -0.7377 0.7377 0.6751 -30.4844 363.1752)" class="st4" width="1.7" height="4.78"/>
					</g>
					<g>
						
							<rect x="379.31" y="193.69" transform="matrix(0.6764 -0.7366 0.7366 0.6764 -21.3879 343.4742)" class="st4" width="1.7" height="4.78"/>
					</g>
					<g>
						
							<rect x="377.01" y="196.2" transform="matrix(0.6749 -0.7379 0.7379 0.6749 -23.6912 343.4038)" class="st4" width="1.7" height="4.78"/>
					</g>
				</g>
			</g>
		</g>
		<g>
			<path class="st9" d="M395.59,236.51c-1.41,0-2.89-0.13-4.42-0.39c-6.95-1.18-14.16-4.94-20.33-10.58
				c-0.18-0.17-0.19-0.45-0.03-0.63c0.17-0.18,0.45-0.19,0.63-0.03c6.04,5.53,13.1,9.21,19.88,10.36
				c6.71,1.14,12.32-0.33,15.82-4.15c0.17-0.18,0.45-0.19,0.63-0.03c0.18,0.17,0.19,0.45,0.03,0.63
				C404.89,234.86,400.65,236.51,395.59,236.51z"/>
		</g>
	</g>
	<g>
		<g>
			<path class="st6" d="M151.84,290.14c0,0-16.14,9.46-24.53,14.75c-8.39,5.29-10.05,26.47-8.97,36.42
				c1.08,9.95,8.2,14.56,22.58,19.59c14.38,5.03,23.73-10.24,32.5-22.02L151.84,290.14z"/>
		</g>
		<g>
			<path class="st6" d="M189.48,239.78c0,0-9.38,1.95-15.09,11.02c-5.71,9.08-36.92,51.73-36.92,51.73l29.54,33.5
				c0,0,26.49-28.31,26.4-36.02C193.31,292.31,189.48,239.78,189.48,239.78z"/>
		</g>
		<g>
			<path class="st6" d="M365.09,317.45c-4.9-7.36-14.83-32.81-26.17-50.22c-6.44-9.89-12.41-14.62-17.82-17.14l-7.86,3.74
				l-8.03,18.47l-9.55,20.69c0,0,1.05,16.12,1.07,17.43c0.01,1.31,19.2,13.45,19.2,13.45L365.09,317.45z"/>
		</g>
		<g>
			<path class="st6" d="M335.34,301.23c0,0,17.83,9.08,27.11,14.17c9.28,5.09,11.59,26.23,10.65,36.2
				c-0.94,9.97-8.6,14.75-24.17,20.12c-15.57,5.37-26.13-9.68-35.98-21.25L335.34,301.23z"/>
		</g>
		<g>
			<path class="st2" d="M230.89,204.45c0,0-0.73,3.82-1.36,7.11c-0.63,3.29-0.42,13.37-0.42,13.37c-0.48,2.74-0.91,9.48-4.88,9.38
				c-6.75-0.16,4.45,23.31,13.52,25.74c10.49,2.82,32.29-9.52,44.23-16.8c1.5-0.91-0.03-5.07,1.22-5.66c0,0-5.8-2.13-6.41-7.47
				c-0.61-5.34,1.22-24.76,1.22-24.76L230.89,204.45z"/>
		</g>
		<g>
			<path class="st5" d="M230.89,204.45c0,0-0.73,3.82-1.36,7.11c-0.63,3.29-0.42,13.37-0.42,13.37c-0.2,1.17-0.4,3.08-0.87,4.87
				c4.33,3.69,9.09,7.55,11.6,8.93c3.16,1.74,7.1,2.52,10.99,2.47c3.88-0.04,7.81-0.9,10.93-2.72c3.19-1.85,10.05-7.92,14.92-12.38
				c0.1-7.64,1.34-20.75,1.34-20.75L230.89,204.45z"/>
		</g>
		<g>
			<path class="st6" d="M283.2,237.58l37.91,12.5c0,0-30.63,42.78-5.4,90.21l-10.22,73.14c0,0,4.22,4.98,1.66,10.83
				c-17.96,5.97-37.17,9.21-57.13,9.21c-28.61,0-55.65-6.65-79.7-18.46l-2.57-71.06c-5.52-56.3,0.84-50.44,21.75-104.17l34.75-5.48
				C225.94,253.67,256.52,255.65,283.2,237.58z"/>
		</g>
		<g>
			<path class="st10" d="M356,312.38c-0.07,0-0.14-0.02-0.21-0.05c-9.19-4.86-20.54-10.65-20.66-10.7c-0.22-0.11-0.31-0.38-0.2-0.6
				c0.11-0.22,0.38-0.31,0.6-0.2c0.09,0.04,6.43,3.27,13.47,6.93l2.62-0.48c0.24-0.05,0.47,0.11,0.52,0.36
				c0.04,0.24-0.12,0.47-0.36,0.52l-1.5,0.28c1.99,1.04,4,2.09,5.92,3.11c0.22,0.11,0.3,0.38,0.19,0.6
				C356.32,312.3,356.16,312.38,356,312.38z M246.2,258.3c-5.15,0-9.97-0.75-14.06-2.35c-8.99-3.54-13.8-10.72-13.91-20.77
				c0-0.25,0.19-0.45,0.44-0.45c0,0,0,0,0.01,0c0.24,0,0.44,0.2,0.44,0.44c0.11,9.66,4.72,16.56,13.34,19.95
				c16.26,6.4,44.46-1.06,58.02-15.33c0.17-0.18,0.45-0.18,0.63-0.02c0.18,0.17,0.19,0.45,0.02,0.63
				C280.76,251.32,261.93,258.3,246.2,258.3z"/>
		</g>
		<g>
			<path class="st2" d="M324.49,281.13l-12.22-25.53c0,0-3.5-3.73-6.44-0.09c-2.94,3.65-0.17,13.04,1.57,20.4
				c1.73,7.36,3.7,15.03,3.7,15.03l-24.57-34.03c0,0-2.87-3.97-6.29-0.63c-3.42,3.33,0.77,12.47,7.02,23.86
				c6.25,11.39,14.5,25.67,14.5,25.67s0.05,5.39,2.79,11.88c0,0,0.28,11.14-5.27,13.48c0,0-5.95,1.48-10.99,0.36
				c-5.04-1.12-17.69-2.47-22.56-2.26c-4.87,0.21-6.17,2.97-6.68,6.28c-0.51,3.3,0.63,7.06,10.94,9.14
				c10.31,2.08,21.37,1.33,30.51,3.9c9.14,2.57,20.16,12.73,32.35,7.56c0,0,8.53,4.61,17.91,0.43c9.37-4.19,6.5-21.9,6.5-21.9
				s2.86-10.4,3.92-14.25c1.06-3.86-3.23-7.89-7.83-5.41c-4.6,2.49-6.85,4.95-6.85,4.95s-8.01-35-10.29-42.67
				C333.92,269.62,324.69,272.39,324.49,281.13z"/>
		</g>
		<g>
			<path class="st5" d="M280.27,330.27c-5.38-0.65-11.49-1.14-14.54-1c-4.87,0.21-6.17,2.97-6.68,6.28
				c-0.51,3.3,0.63,7.06,10.94,9.14c2.42,0.49,4.88,0.82,7.35,1.08C278.96,340.84,279.96,335.65,280.27,330.27z"/>
		</g>
		<g>
			<path class="st10" d="M332.85,356.59c-0.23,0-0.42-0.17-0.44-0.4c-1.11-10.74-4.04-18.46-7.61-24c-0.46-0.65-0.83-1.19-1.09-1.6
				c-8.23-11.44-19.04-12.45-19.2-12.47c-0.25-0.02-0.43-0.23-0.41-0.48c0.02-0.25,0.24-0.42,0.48-0.41
				c0.16,0.01,10.83,0.99,19.22,11.97c0.08,0.04,0.16,0.1,0.21,0.18c0.01,0.01,0.14,0.24,0.39,0.62c0.41,0.57,0.81,1.16,1.21,1.77
				c2.02,2.84,5.83,7.6,10.57,10.77c0.21,0.13,0.26,0.41,0.12,0.62c-0.14,0.21-0.42,0.26-0.62,0.12c-2.89-1.93-5.43-4.43-7.46-6.76
				c2.39,5.08,4.24,11.48,5.08,19.56c0.03,0.25-0.15,0.46-0.4,0.49C332.88,356.59,332.87,356.59,332.85,356.59z M352.83,337.01
				c-1.18,0-2.6-0.26-4.28-0.96c-0.23-0.09-0.33-0.36-0.24-0.58c0.09-0.23,0.36-0.33,0.58-0.24c5.61,2.35,7.91-0.69,8.01-0.82
				c0.15-0.2,0.43-0.24,0.62-0.1c0.2,0.14,0.24,0.42,0.1,0.62C357.54,335.05,356.08,337.01,352.83,337.01z M342.01,326.42
				c-0.15,0-0.29-0.08-0.38-0.21c-0.45-0.72-0.9-1.43-1.35-2.12c0-0.01-0.01-0.01-0.02-0.02c0-0.01-0.01-0.02-0.01-0.03
				c-4.25-6.45-8.68-11.4-13.27-14.81c-0.08-0.03-0.15-0.08-0.2-0.15c-3.49-2.56-7.07-4.23-10.72-5
				c-8.34-1.76-14.01,2.03-14.06,2.07c-0.2,0.14-0.48,0.09-0.62-0.12c-0.14-0.2-0.09-0.48,0.12-0.62c0.22-0.15,4.94-3.3,12.25-2.59
				l-3.08-11.76c-0.06-0.24,0.08-0.48,0.32-0.54c0.24-0.06,0.48,0.08,0.54,0.32l3.17,12.1c0.51,0.07,1.02,0.16,1.55,0.27
				c3.53,0.74,6.98,2.3,10.35,4.65l-2.55-26.67c-0.02-0.25,0.16-0.46,0.4-0.49c0.24-0.03,0.46,0.16,0.49,0.4l2.63,27.45
				c4.57,3.41,8.99,8.31,13.21,14.65l5.49-3.62c0.21-0.13,0.48-0.08,0.62,0.13c0.14,0.21,0.08,0.48-0.13,0.62l-5.49,3.61
				c0.38,0.59,0.76,1.18,1.14,1.79c0.13,0.21,0.06,0.49-0.15,0.61C342.17,326.4,342.09,326.42,342.01,326.42z"/>
		</g>
		<g>
			<path class="st2" d="M130.06,276.13l10.82-23.97c0,0,3.17-3.54,5.98-0.21c2.81,3.33,0.43,12.1-1.03,18.98s-3.12,14.04-3.12,14.04
				l22.1-32.12c0,0,2.58-3.75,5.83-0.72c3.24,3.03-0.45,11.6-6.02,22.31c-5.57,10.71-12.93,24.14-12.93,24.14s0.07,5-2.34,11.09
				c0,0-0.03,10.36,5.17,12.42c0,0,5.56,1.25,10.21,0.1c4.66-1.15,16.38-2.67,20.9-2.57c4.52,0.1,5.79,2.63,6.34,5.69
				c0.55,3.06-0.44,6.57-9.97,8.72c-9.53,2.15-19.82,1.68-28.25,4.26c-8.43,2.58-18.46,12.24-29.89,7.7c0,0-7.83,4.46-16.62,0.77
				c-8.79-3.69-6.5-20.21-6.5-20.21s-2.88-9.6-3.94-13.16c-1.06-3.56,2.83-7.4,7.16-5.19c4.33,2.21,6.47,4.45,6.47,4.45
				s6.71-32.68,8.67-39.85C121.06,265.63,129.69,268.01,130.06,276.13z"/>
		</g>
		<g>
			<path class="st5" d="M169.41,321.26c5.46-0.9,12.84-1.73,16.22-1.66c4.52,0.1,5.79,2.63,6.34,5.69c0.55,3.06-0.44,6.57-9.97,8.72
				c-3.93,0.89-7.99,1.33-12,1.72c-0.52-3.1-0.8-6.29-0.8-9.54C169.2,324.54,169.28,322.89,169.41,321.26z"/>
		</g>
		<g>
			<path class="st10" d="M123.86,346.42c-0.01,0-0.02,0-0.04,0c-0.25-0.02-0.43-0.23-0.41-0.48c0.6-7.42,2.15-13.34,4.22-18.08
				c-1.81,2.15-4.07,4.46-6.65,6.26c-0.2,0.14-0.48,0.09-0.62-0.11c-0.14-0.2-0.09-0.48,0.11-0.62c4.33-3.04,7.76-7.53,9.58-10.22
				c0.35-0.58,0.72-1.14,1.08-1.68c0.22-0.36,0.34-0.57,0.35-0.58c0.05-0.08,0.12-0.14,0.2-0.18c7.57-10.38,17.47-11.52,17.62-11.53
				c0.24-0.03,0.46,0.15,0.49,0.4c0.02,0.24-0.16,0.46-0.4,0.48c-0.15,0.02-10.16,1.18-17.55,11.97c-0.23,0.38-0.56,0.89-0.97,1.5
				c-3.2,5.22-5.76,12.45-6.56,22.44C124.28,346.25,124.09,346.42,123.86,346.42z M104.74,328.66c-2.92,0-4.28-1.74-4.36-1.84
				c-0.15-0.2-0.11-0.48,0.09-0.62c0.2-0.15,0.47-0.11,0.62,0.09c0.09,0.12,2.29,2.86,7.42,0.58c0.22-0.1,0.49,0,0.59,0.23
				c0.1,0.23,0,0.49-0.23,0.59C107.24,328.39,105.87,328.66,104.74,328.66z M114.72,318.59c-0.08,0-0.16-0.02-0.23-0.06
				c-0.21-0.12-0.28-0.4-0.16-0.61c0.33-0.57,0.67-1.12,1-1.66l-5.15-3.23c-0.21-0.13-0.27-0.4-0.14-0.61
				c0.13-0.21,0.41-0.27,0.61-0.14l5.15,3.22c3.78-5.97,7.77-10.6,11.94-13.86l1.87-25.54c0.02-0.25,0.23-0.43,0.48-0.41
				c0.24,0.02,0.43,0.23,0.41,0.48l-1.81,24.76c3.07-2.24,6.23-3.74,9.47-4.5c0.48-0.11,0.96-0.21,1.42-0.28l2.68-11.29
				c0.06-0.24,0.3-0.39,0.54-0.33c0.24,0.06,0.39,0.3,0.33,0.54l-2.6,10.95c6.75-0.8,11.2,2.03,11.41,2.16
				c0.21,0.13,0.26,0.41,0.13,0.62c-0.13,0.21-0.41,0.26-0.62,0.13c-0.05-0.04-5.41-3.43-13.11-1.62c-3.36,0.79-6.64,2.42-9.81,4.86
				c-0.05,0.06-0.11,0.12-0.19,0.15c-4.64,3.62-9.07,8.99-13.24,16.07C115.02,318.51,114.87,318.59,114.72,318.59z"/>
		</g>
		<g>
			<path class="st4" d="M121.24,254.59c-0.07-1.05,0.72-1.95,1.76-2.02c1.04-0.07,1.95,0.71,2.02,1.76l0.31,4.31
				c0.07,1.04-0.72,1.95-1.76,2.02c-1.04,0.07-1.95-0.72-2.02-1.76L121.24,254.59L121.24,254.59z M116.19,260.94
				c0.71,0.76,0.67,1.97-0.1,2.68c-0.76,0.71-1.96,0.67-2.68-0.1l-7.86-8.49c-0.71-0.77-0.67-1.97,0.09-2.68
				c0.77-0.71,1.96-0.67,2.68,0.1L116.19,260.94L116.19,260.94L116.19,260.94z M109.5,269.66c1.03,0.18,1.72,1.17,1.54,2.19
				c-0.18,1.03-1.16,1.72-2.2,1.54l-4.74-0.82c-1.03-0.18-1.72-1.17-1.54-2.2c0.18-1.03,1.16-1.72,2.2-1.54L109.5,269.66
				L109.5,269.66z"/>
		</g>
		<g>
			<path class="st4" d="M328.32,239.55c0.07-1.04-0.71-1.95-1.76-2.02c-1.04-0.07-1.95,0.72-2.02,1.76l-0.31,4.3
				c-0.07,1.04,0.72,1.95,1.76,2.02c1.04,0.07,1.95-0.72,2.02-1.76L328.32,239.55L328.32,239.55z M333.38,245.91
				c-0.71,0.76-0.67,1.96,0.1,2.68c0.77,0.71,1.97,0.67,2.68-0.1l7.86-8.49c0.71-0.77,0.67-1.97-0.09-2.68
				c-0.77-0.71-1.97-0.67-2.68,0.1L333.38,245.91L333.38,245.91L333.38,245.91z M340.06,254.63c-1.03,0.18-1.72,1.17-1.54,2.19
				c0.18,1.03,1.16,1.72,2.2,1.54l4.74-0.82c1.03-0.18,1.72-1.17,1.54-2.2c-0.18-1.03-1.16-1.72-2.2-1.54L340.06,254.63
				L340.06,254.63z"/>
		</g>
		<g>
			<path class="st2" d="M289.36,171.99c0,0,3.68-4.52,6.31-4.36c2.62,0.16,6.09,5.99,5.9,10.51c-0.19,4.52-4.55,20.34-13.37,14.73
				C279.37,187.25,289.36,171.99,289.36,171.99z"/>
		</g>
		<g>
			<path class="st5" d="M286.6,176.84c-0.29,0.32-0.35,0.85-0.15,1.19c0.19,0.3,0.53,0.34,0.8,0.11l0,0c0,0,2.85,13.77,4.7,11.54
				c1.85-2.23,3.8-4.39,4.48-7.94c0.68-3.54-2.38-6.66-1.35-7.62c0.98-0.91,2.11,0.41,2.22,0.54l0,0l0,0l0,0
				c0.9,1.16,1.35,2.54,1.35,2.55c0.13,0.4,0.51,0.53,0.83,0.3c0.33-0.23,0.48-0.75,0.35-1.15c0-0.01-1.69-5.22-5.31-4.91
				C291.05,171.76,286.61,176.83,286.6,176.84z"/>
		</g>
		<g>
			<path class="st2" d="M203.5,175.41c0,0-4.03-4.22-6.63-3.85c-2.6,0.37-5.6,6.46-5.05,10.95c0.55,4.49,6.15,19.92,14.5,13.62
				C214.66,189.82,203.5,175.41,203.5,175.41z"/>
		</g>
		<g>
			<path class="st5" d="M206.64,180.03c0.31,0.3,0.42,0.82,0.24,1.17c-0.16,0.31-0.5,0.38-0.79,0.18l0,0c0,0-1.75,13.96-3.77,11.88
				c-2.02-2.08-4.13-4.08-5.09-7.56c-0.96-3.48,1.84-6.83,0.74-7.7c-1.05-0.83-2.07,0.58-2.17,0.71l0,0l0,0l0,0
				c-0.8,1.23-1.14,2.64-1.14,2.65c-0.1,0.41-0.46,0.57-0.81,0.36c-0.34-0.21-0.54-0.71-0.44-1.12c0-0.01,1.27-5.34,4.91-5.32
				C201.8,175.31,206.63,180.01,206.64,180.03z"/>
		</g>
		<g>
			<path class="st2" d="M243.56,99.32c-58.91,3.26-48.3,51.75-41.53,90.93c10.53,60.98,84.5,58.04,90.16-3.59
				C295.82,147.07,302.54,97.89,243.56,99.32z"/>
		</g>
		<g>
			<path class="st5" d="M258.91,175.24c2.03-4.26,4.52-6.59,7.06-7.52c1.74-0.64,3.5-0.63,5.15-0.15c1.64,0.48,3.17,1.44,4.45,2.7
				c2.34,2.3,3.87,5.6,3.78,8.84c0,0.1-0.08,0.17-0.18,0.17c-0.09,0-0.16-0.07-0.17-0.15c-0.26-2.24-1.48-4.44-3.26-6.1
				c-1.34-1.26-3.01-2.21-4.8-2.63c-1.79-0.42-3.71-0.32-5.59,0.51c-2.18,0.97-4.29,2.92-6.07,6.19c-0.43,0.78-0.77,1.62-1,2.47l0,0
				l0,0c-0.23,0.83-0.36,1.67-0.37,2.49c0,0.1-0.08,0.17-0.17,0.17c-0.09,0-0.16-0.07-0.17-0.16c-0.1-1.1-0.02-2.25,0.2-3.39
				C258,177.49,258.39,176.32,258.91,175.24z"/>
		</g>
		<g>
			<path class="st5" d="M222.07,169.58c2.53,0.71,5.12,2.77,7.41,6.73c0.58,1,1.05,2.11,1.37,3.24c0.3,1.08,0.47,2.19,0.46,3.26
				c0,0.09-0.07,0.16-0.15,0.17c-0.09,0.01-0.17-0.06-0.18-0.15c-0.07-0.79-0.26-1.6-0.55-2.38c-0.29-0.81-0.69-1.59-1.16-2.31
				c-1.97-3.03-4.17-4.75-6.35-5.52c-1.88-0.66-3.75-0.61-5.45-0.06c-1.7,0.55-3.24,1.59-4.44,2.91c-1.59,1.74-2.6,3.96-2.68,6.15
				c0,0.08-0.07,0.15-0.15,0.16c-0.09,0.01-0.17-0.06-0.18-0.15c-0.33-3.12,0.89-6.44,2.98-8.84c1.14-1.32,2.55-2.36,4.1-2.96
				C218.63,169.23,220.34,169.09,222.07,169.58z"/>
		</g>
		<g>
			<path class="st5" d="M217.64,138.04l4.43,3.96c17.32-2.41,47.63,15.62,62.39,3.57c9.03-7.38-6.98-13.27-8.28-13.59
				C274.87,131.66,217.64,138.04,217.64,138.04z"/>
		</g>
		<g>
			<path class="st6" d="M292.85,182.44c0.5-5.37,1.05-11.34,1.41-16.83c2.44-36.82-1.23-63.52-50.27-62.33
				c-48.98,2.71-50.92,28.72-45.57,65.22c0.8,5.44,1.95,12.26,2.88,17.57l0,0c0,0,2.98-5.35,1.28-16.8c0,0,10.21-6.88,7.79-21.49
				c-3.38-20.36,21.28-21.69,34.51-22.22c13.23-0.53,39.04-0.09,34.8,20.11c-4.24,20.2,9.02,24.1,9.02,24.1
				C287.91,181.33,292.85,182.44,292.85,182.44L292.85,182.44z"/>
		</g>
		<g>
			<path class="st5" d="M243.72,175.88c-0.01,0.09-0.04,0.19-0.09,0.28l-0.25,0.5l0,0.01l0,0c-1.26,2.54-5.3,10.65-5.25,11.51
				c0.08,0.62,2.47,2.33,2.99,2.66c1.2,0.76,3.88-0.48,4.85-0.92c4.17-1.91-2.45,3.94-4.21,3.56c-1.4-0.3-2.31-0.9-3.39-1.78
				c-0.92-0.74-2.19-2.13-2.35-3.3c-0.16-1.21,3.95-9.76,5.38-12.53c1.33-2.74,1.24-4.46,0.84-5.46c-0.27-0.68-0.33-1.7,0.68-0.46
				C243.75,170.98,244.81,173,243.72,175.88z"/>
		</g>
		<g>
			<path class="st6" d="M230.85,160.93c-0.05,0.7-0.22,1.05-0.34,1.21c-0.07-0.95-0.64-1.61-1.54-2.05
				c-5.87-2.43-15.1-0.14-19.28,3.62h0c-0.04,0.03-0.06,0.09-0.04,0.15c0.02,0.07,0.08,0.1,0.13,0.07c3.09-1.45,6.22-1.88,9.03-1.79
				c4.5,0.14,8.16,1.6,9.42,2.35c0.45,0.27,0.98,0.53,1.51,0.53c0.55,0,1.09-0.29,1.52-1.14c0.14-0.28,0.24-0.56,0.31-0.82
				c0.16-0.62,0.15-1.18,0.07-1.59c-0.08-0.43-0.25-0.72-0.35-0.8c-0.01-0.01-0.03-0.02-0.04-0.02l0,0l0,0h0
				c-0.31-0.11-0.39,0.28-0.39,0.28l0,0L230.85,160.93z"/>
		</g>
		<g>
			<path class="st6" d="M258.94,175.95c2.03-4.26,4.52-6.58,7.06-7.52c1.74-0.64,3.5-0.63,5.15-0.15c1.64,0.49,3.17,1.44,4.45,2.7
				c2.34,2.3,3.87,5.6,3.78,8.84c0,0.1-0.08,0.17-0.18,0.17c-0.09,0-0.16-0.07-0.17-0.15c-0.26-2.25-1.48-4.44-3.26-6.1
				c-1.34-1.26-3.01-2.2-4.8-2.62c-1.79-0.42-3.71-0.32-5.59,0.51c-2.18,0.96-4.29,2.92-6.07,6.19c-0.43,0.78-0.77,1.62-1,2.47v0
				l0,0c-0.23,0.83-0.36,1.67-0.37,2.48c0,0.09-0.08,0.17-0.17,0.17c-0.09,0-0.16-0.07-0.17-0.16c-0.1-1.1-0.02-2.25,0.2-3.39
				C258.03,178.2,258.42,177.03,258.94,175.95z"/>
		</g>
		<g>
			<path class="st6" d="M222.19,170.4c2.53,0.71,5.12,2.77,7.41,6.74c0.58,1.01,1.05,2.11,1.37,3.24c0.3,1.09,0.47,2.2,0.46,3.27
				c0,0.08-0.07,0.16-0.15,0.16c-0.09,0.01-0.17-0.06-0.18-0.15c-0.08-0.79-0.27-1.59-0.55-2.38c-0.29-0.81-0.69-1.59-1.16-2.31
				c-1.97-3.03-4.17-4.75-6.35-5.52c-1.88-0.66-3.75-0.61-5.44-0.06c-1.7,0.55-3.24,1.59-4.44,2.91c-1.59,1.74-2.6,3.96-2.68,6.15
				c0,0.08-0.07,0.15-0.15,0.16c-0.09,0.01-0.17-0.06-0.18-0.15c-0.33-3.13,0.89-6.44,2.98-8.84c1.14-1.32,2.55-2.36,4.09-2.96
				C218.75,170.06,220.45,169.91,222.19,170.4z"/>
		</g>
		<g>
			<path class="st6" d="M261.01,174.33c0.34-0.6,0.69-1.16,1.04-1.67c1.45-1.2,3.34-1.97,5.44-2.05c4.74-0.19,8.72,3.17,8.89,7.51
				c0.29,7.21-9.06,9.46-14.08,6.41c-0.93-0.7-1.69-1.58-2.23-2.59C259.15,179.67,259.66,176.74,261.01,174.33z"/>
		</g>
		<g>
			<path class="st6" d="M227.44,176.04c-0.37-0.56-0.75-1.07-1.14-1.54c-1.49-1.05-3.38-1.65-5.42-1.57
				c-4.6,0.18-8.19,3.74-8.03,7.95c0.28,7,9.5,8.45,14.12,5.12c0.84-0.75,1.51-1.66,1.96-2.67
				C229.65,181.05,228.93,178.26,227.44,176.04z"/>
		</g>
		<g>
			<g>
				<g>
					<path class="st0" d="M279.08,183.19c-0.04,0-0.07,0-0.11-0.01c-0.74-0.18-1.15-0.56-1.19-0.6c-0.18-0.17-0.18-0.46-0.01-0.63
						c0.17-0.17,0.45-0.18,0.63-0.01c0.01,0.01,0.28,0.25,0.78,0.38c0.24,0.06,0.39,0.3,0.33,0.54
						C279.46,183.06,279.28,183.19,279.08,183.19z"/>
				</g>
				<g>
					<path class="st0" d="M277.13,184.83c-0.09,0-0.17-0.02-0.25-0.08c-0.52-0.36-0.73-0.78-0.75-0.82
						c-0.1-0.22-0.01-0.49,0.22-0.59c0.22-0.1,0.48-0.01,0.59,0.21c0.01,0.01,0.13,0.25,0.45,0.47c0.2,0.14,0.25,0.42,0.12,0.62
						C277.42,184.76,277.28,184.83,277.13,184.83z"/>
				</g>
			</g>
			<g>
				<g>
					<path class="st0" d="M209.83,185.95c-0.19,0-0.36-0.12-0.42-0.31c-0.08-0.23,0.05-0.49,0.29-0.56c0.5-0.16,0.75-0.43,0.75-0.44
						c0.16-0.18,0.45-0.2,0.63-0.03c0.18,0.16,0.2,0.44,0.04,0.62c-0.04,0.05-0.41,0.46-1.14,0.69
						C209.92,185.94,209.88,185.95,209.83,185.95z"/>
				</g>
				<g>
					<path class="st0" d="M211.9,187.42c-0.13,0-0.26-0.06-0.35-0.17c-0.15-0.19-0.12-0.47,0.07-0.63c0.3-0.25,0.41-0.5,0.41-0.5
						c0.09-0.23,0.35-0.34,0.58-0.25c0.23,0.09,0.34,0.34,0.26,0.57c-0.02,0.05-0.19,0.48-0.68,0.88
						C212.1,187.39,212,187.42,211.9,187.42z"/>
				</g>
			</g>
		</g>
		<g>
			<path class="st4" d="M265.21,179.37c0.82-0.11,1.58,0.48,1.69,1.32c0.11,0.84-0.46,1.62-1.29,1.73
				c-0.82,0.11-1.58-0.48-1.69-1.32C263.81,180.25,264.38,179.48,265.21,179.37z"/>
		</g>
		<g>
			<path class="st4" d="M218.91,181.76c0.8-0.11,1.53,0.46,1.64,1.28c0.11,0.82-0.45,1.57-1.25,1.68c-0.8,0.11-1.53-0.47-1.64-1.28
				C217.56,182.62,218.12,181.87,218.91,181.76z"/>
		</g>
		<g>
			<path class="st5" d="M250.57,219.26c0.71-0.12,1.19-0.77,1.07-1.46c-0.12-0.68-0.8-1.14-1.51-1.02c-0.01,0-3.95,1.22-8.79,0.59
				c-1.71-0.22-1.91,1.64-0.2,1.86C246.36,219.91,250.56,219.26,250.57,219.26z"/>
		</g>
		<g>
			<path class="st6" d="M210.07,144.83c-3.56-0.56-5.61-1.84-8.1-3.11c-23.94-12.21-1.99-53.11,7.85-41.25
				c0.11,0.13,0.27,0.6,0.33,0.42c8.12-26.68,52.84-27.81,40.43-11.14c0,0,32.52-9.55,34.34,13.87
				c6.62-17.14,27.32,38.72-5.23,42.06C252.47,148.46,234.4,136.62,210.07,144.83z"/>
		</g>
		<g>
			<g>
				<path class="st6" d="M255.93,156.63c0.06,0.72,0.25,1.07,0.38,1.23c0.05-0.98,0.63-1.69,1.55-2.19
					c5.99-2.74,15.53-0.75,19.89,2.95l0,0c0.04,0.03,0.06,0.09,0.04,0.15c-0.02,0.07-0.08,0.1-0.13,0.08
					c-3.2-1.37-6.43-1.68-9.32-1.48c-4.63,0.32-8.36,1.98-9.64,2.81c-0.45,0.29-1,0.59-1.54,0.61c-0.56,0.02-1.12-0.25-1.58-1.12
					c-0.15-0.29-0.26-0.57-0.34-0.84c-0.18-0.64-0.17-1.21-0.1-1.64c0.08-0.45,0.24-0.76,0.35-0.84c0.01-0.01,0.03-0.02,0.04-0.03h0
					l0,0h0c0.32-0.12,0.4,0.27,0.4,0.28h0L255.93,156.63z"/>
			</g>
			<g>
				<path class="st2" d="M273.52,153.44c0.35-0.26,0.82-0.16,1.06,0.23c0.24,0.39,0.15,0.93-0.2,1.19l-6.36,4.84
					c-0.35,0.27-0.82,0.16-1.06-0.23c-0.24-0.39-0.15-0.93,0.2-1.19L273.52,153.44z"/>
			</g>
		</g>
		<g>
			<path class="st6" d="M295.03,188.67c0.62-0.03,1.14,0.46,1.16,1.08c0.02,0.62-0.46,1.14-1.08,1.16
				c-0.62,0.03-1.14-0.46-1.16-1.08C293.93,189.21,294.41,188.69,295.03,188.67z"/>
		</g>
		<g>
			<path class="st5" d="M199.24,101.85c1.2,8.65,7.84,22.11,39.67,9.93l0.82-0.32c0.6-0.23,0.92-0.36,0.92-0.15v0v0
				c0,0.07-0.06,0.13-0.13,0.13l0,0c-0.18,0.11-0.53,0.28-1.08,0.54l-0.42,0.2c-2.43,1.16-7.21,3.32-12.59,5.15
				c-3.47,1.19-7.19,2.23-10.7,2.79c-4.29,0.68-7.82,0.51-10.7-0.08c-2.88-0.58-5.1-1.58-6.78-2.54c-0.33-0.19-0.58-0.33-0.82-0.47
				v0v0c-2.17-1.26-3.47-2.01-5.19-1.85C193.65,109.83,196.28,104.96,199.24,101.85L199.24,101.85z M243.91,109.8
				c0.03-0.02,11.48-6.75,18.83-4.8c0.07,0.02,0.12,0.09,0.1,0.17c-0.02,0.07-0.09,0.11-0.15,0.1v0c-0.01,0-2.92-0.46-4.58,1.41
				c-1.42,1.61-2.87,1.56-4.78,1.49c-0.45-0.02-0.92-0.03-1.41-0.03c-1.34,0.01-2.75,0.17-4.13,0.51c-1.28,0.31-2.55,0.77-3.73,1.39
				l-0.01,0l0,0l-0.01,0c-0.07,0.04-0.15,0.01-0.18-0.06C243.83,109.92,243.85,109.84,243.91,109.8L243.91,109.8z"/>
		</g>
		<g>
			<g>
				<path class="st6" d="M230.97,197.46c3.38,1.07,8.64,1.1,13.85,0.37c5.22-0.73,10.31-2.21,13.35-4.18
					c0.6-0.39,1.41-0.22,1.8,0.38c0.18,0.27,0.24,0.59,0.2,0.89h0c-1.09,7.73-3.61,13.29-6.83,16.56c-1.99,2.02-4.26,3.19-6.65,3.49
					c-2.39,0.29-4.86-0.3-7.25-1.79c-3.76-2.35-7.34-6.99-10.06-14c-0.26-0.67,0.07-1.42,0.74-1.68
					C230.4,197.38,230.7,197.38,230.97,197.46L230.97,197.46z"/>
			</g>
			<g>
				<path class="st4" d="M231.84,197.71c3.37,0.83,8.2,0.8,12.98,0.13c5.22-0.73,10.31-2.21,13.35-4.18c0.6-0.39,1.41-0.22,1.8,0.38
					c0.18,0.27,0.24,0.59,0.2,0.89h0c-0.09,0.63-0.19,1.24-0.29,1.84c-8.98,6.16-22.89,5.87-25.53,4.65
					C232.62,200.62,232.03,198.91,231.84,197.71z"/>
			</g>
			<g>
				<path class="st5" d="M235.89,210.21c2.14-1.5,5.56-2.72,10.61-1.33c0,0,5.07-6.29,11.84-6.1c-1.29,3.76-3.02,6.68-5.01,8.71
					c-1.99,2.02-4.26,3.19-6.65,3.49c-2.39,0.29-4.86-0.3-7.25-1.79C238.23,212.42,237.04,211.43,235.89,210.21z"/>
			</g>
		</g>
		<g>
			<path class="st8" d="M244.97,212.77c-0.02,0-0.04,0-0.06,0c-0.24-0.04-0.41-0.26-0.38-0.5c0.49-3.48,2.1-4.99,2.17-5.05
				c0.18-0.17,0.46-0.15,0.63,0.03c0.17,0.18,0.15,0.46-0.03,0.63c-0.01,0.01-1.45,1.38-1.89,4.52
				C245.38,212.61,245.19,212.77,244.97,212.77z"/>
		</g>
		<g>
			<g>
				<circle class="st7" cx="226.18" cy="316.79" r="53.21"/>
			</g>
			<g>
				<path class="st5" d="M226.18,356.95c22.12,0,40.16-18.04,40.16-40.16c0-22.12-18.04-40.16-40.16-40.16
					c-22.12,0-40.16,18.04-40.16,40.16C186.02,338.91,204.07,356.95,226.18,356.95z"/>
				<path class="st8" d="M226.18,357.4c-22.39,0-40.61-18.22-40.61-40.61c0-22.39,18.21-40.6,40.61-40.6
					c22.39,0,40.61,18.22,40.61,40.6C266.79,339.18,248.57,357.4,226.18,357.4z M226.18,277.08c-21.9,0-39.71,17.82-39.71,39.71
					c0,21.9,17.82,39.71,39.71,39.71c21.9,0,39.71-17.82,39.71-39.71C265.9,294.89,248.08,277.08,226.18,277.08z"/>
			</g>
			<g>
				<path class="st9" d="M177.49,317.24c-0.25,0-0.45-0.2-0.45-0.44c0-1.26,0.05-2.55,0.14-3.82c0.02-0.24,0.24-0.42,0.48-0.41
					c0.25,0.02,0.43,0.23,0.41,0.48c-0.09,1.25-0.14,2.51-0.14,3.75C177.94,317.04,177.74,317.24,177.49,317.24z M178.06,309.72
					c-0.02,0-0.04,0-0.07,0c-0.24-0.04-0.41-0.26-0.37-0.51c3.65-24.03,24.08-41.5,48.56-41.55h0c0.25,0,0.44,0.2,0.45,0.44
					c0,0.25-0.2,0.45-0.45,0.45c-24.04,0.05-44.1,17.2-47.68,40.79C178.47,309.56,178.28,309.72,178.06,309.72z"/>
			</g>
			<g>
				<path class="st11" d="M226.18,365.93c-0.25,0-0.45-0.2-0.45-0.44c0-0.25,0.2-0.45,0.45-0.45c24.17,0,44.73-18.11,47.84-42.12
					c0.03-0.25,0.25-0.42,0.5-0.38c0.24,0.03,0.42,0.26,0.38,0.5C271.74,347.49,250.8,365.93,226.18,365.93z M274.8,319.68
					c-0.01,0-0.02,0-0.02,0c-0.25-0.01-0.43-0.22-0.42-0.47c0.04-0.8,0.06-1.61,0.07-2.42c0-0.25,0.2-0.44,0.45-0.44c0,0,0,0,0,0
					c0.25,0,0.44,0.2,0.44,0.45c0,0.83-0.03,1.65-0.07,2.46C275.24,319.49,275.04,319.68,274.8,319.68z"/>
			</g>
			<g>
				<g>
					<path class="st12" d="M226.15,350.96c-7.9,0-15.81-2.69-22.18-8.14c-0.19-0.16-0.21-0.44-0.05-0.63
						c0.16-0.19,0.44-0.21,0.63-0.05c13.12,11.22,32.97,10.43,45.2-1.79c10.91-10.91,12.93-27.71,4.93-40.87
						c-0.13-0.21-0.06-0.48,0.15-0.61c0.21-0.13,0.48-0.06,0.61,0.15c8.22,13.51,6.14,30.76-5.06,41.96
						C243.76,347.61,234.96,350.96,226.15,350.96z M197.31,334.77c-0.15,0-0.3-0.08-0.38-0.21c-8.22-13.51-6.14-30.76,5.06-41.96
						c12.55-12.55,32.94-13.36,46.41-1.84c0.19,0.16,0.21,0.44,0.05,0.63c-0.16,0.19-0.44,0.21-0.63,0.05
						c-13.12-11.22-32.98-10.43-45.2,1.79c-10.91,10.91-12.93,27.71-4.93,40.87c0.13,0.21,0.06,0.48-0.15,0.61
						C197.47,334.75,197.39,334.77,197.31,334.77z"/>
				</g>
				<g>
					<path class="st12" d="M250.06,296.03c-0.83,0-1.61-0.32-2.2-0.91c-1.21-1.21-1.21-3.19,0-4.4c1.18-1.18,3.23-1.18,4.41,0
						c0.59,0.59,0.91,1.37,0.91,2.2c0,0.83-0.32,1.61-0.91,2.2C251.68,295.7,250.9,296.03,250.06,296.03z M250.06,290.69
						c-0.59,0-1.15,0.23-1.57,0.65c-0.87,0.87-0.87,2.28,0,3.14c0.84,0.84,2.3,0.84,3.14,0c0.42-0.42,0.65-0.98,0.65-1.57
						c0-0.59-0.23-1.15-0.65-1.57C251.22,290.92,250.66,290.69,250.06,290.69z"/>
				</g>
				<g>
					<path class="st12" d="M202.3,343.79c-0.83,0-1.61-0.32-2.2-0.91c-1.21-1.21-1.21-3.19,0-4.41c0.59-0.59,1.37-0.91,2.2-0.91l0,0
						c0.83,0,1.62,0.32,2.2,0.91c1.21,1.21,1.21,3.19,0,4.41C203.92,343.46,203.13,343.79,202.3,343.79z M202.3,338.45
						c-0.59,0-1.15,0.23-1.57,0.65c-0.87,0.87-0.87,2.28,0,3.14c0.84,0.84,2.3,0.84,3.14,0c0.87-0.87,0.87-2.28,0-3.14
						C203.45,338.68,202.9,338.45,202.3,338.45z"/>
				</g>
			</g>
			<g>
				<g>
					<path class="st4" d="M209.71,294.34h17.92c3.56,0,6.2,0.15,7.94,0.44c1.75,0.3,3.31,0.92,4.68,1.85
						c1.38,0.94,2.52,2.18,3.44,3.74c0.92,1.55,1.38,3.31,1.38,5.24c0,2.09-0.56,4.02-1.69,5.76c-1.13,1.75-2.66,3.05-4.59,3.93
						c2.72,0.8,4.81,2.16,6.28,4.08c1.46,1.92,2.19,4.17,2.19,6.77c0,2.04-0.47,4.03-1.42,5.96c-0.95,1.93-2.24,3.47-3.89,4.63
						c-1.64,1.15-3.66,1.86-6.07,2.13c-1.5,0.16-5.14,0.26-10.91,0.3h-15.26V294.34L209.71,294.34z M218.78,301.79v10.33h5.93
						c3.52,0,5.71-0.05,6.56-0.16c1.54-0.18,2.76-0.71,3.65-1.6c0.89-0.89,1.32-2.04,1.32-3.48c0-1.39-0.38-2.5-1.15-3.37
						c-0.76-0.87-1.9-1.39-3.4-1.57c-0.9-0.11-3.47-0.16-7.72-0.16H218.78L218.78,301.79z M218.78,319.56v12.02h8.39
						c3.25,0,5.33-0.09,6.21-0.27c1.35-0.25,2.44-0.85,3.29-1.79c0.85-0.96,1.27-2.22,1.27-3.82c0-1.36-0.32-2.5-0.98-3.43
						c-0.65-0.94-1.6-1.63-2.83-2.05c-1.23-0.43-3.91-0.65-8.03-0.65H218.78z"/>
				</g>
				<g>
					<rect x="216.51" y="290.23" class="st4" width="4.54" height="8.21"/>
				</g>
				<g>
					<rect x="225.59" y="290.23" class="st4" width="4.54" height="8.21"/>
				</g>
				<g>
					<rect x="216.51" y="335.04" class="st4" width="4.54" height="8.21"/>
				</g>
				<g>
					<rect x="225.59" y="335.04" class="st4" width="4.54" height="8.21"/>
				</g>
			</g>
		</g>
		<g>
			<path class="st9" d="M350.76,357.02c-0.17,0-0.33-0.1-0.41-0.27c-0.1-0.22,0-0.49,0.23-0.59c8.96-4,6.28-21.25,6.25-21.42
				c-0.01-0.06-0.01-0.13,0.01-0.19c0,0,2.86-10.4,3.92-14.25c0.45-1.65-0.18-3.45-1.6-4.59c-1.56-1.24-3.65-1.36-5.59-0.31
				c-4.47,2.42-6.71,4.83-6.74,4.86c-0.11,0.12-0.28,0.17-0.44,0.13c-0.16-0.04-0.28-0.17-0.32-0.33
				c-0.08-0.35-8.03-35.08-10.29-42.64c-0.85-2.86-2.87-4.44-5.26-4.12c-2.7,0.36-5.48,3.17-5.59,7.85c0,0.21-0.15,0.38-0.35,0.43
				c-0.2,0.04-0.41-0.06-0.5-0.24l-12.19-25.47c-0.26-0.26-1.66-1.56-3.25-1.5c-0.91,0.03-1.74,0.52-2.48,1.43
				c-2.47,3.06-0.61,10.71,1.04,17.45c0.21,0.87,0.42,1.73,0.62,2.56c1.71,7.27,3.68,14.95,3.7,15.02c0.05,0.21-0.05,0.42-0.24,0.52
				c-0.2,0.09-0.43,0.03-0.55-0.14l-24.56-34.03c-0.01-0.02-1.21-1.64-2.87-1.77c-0.93-0.07-1.85,0.32-2.75,1.2
				c-0.18,0.17-0.46,0.17-0.63-0.01c-0.17-0.18-0.17-0.46,0.01-0.63c1.09-1.07,2.25-1.56,3.45-1.45c2.07,0.18,3.45,2.06,3.51,2.14
				l23.2,32.14c-0.72-2.83-1.98-7.89-3.13-12.77c-0.2-0.83-0.4-1.68-0.62-2.56c-1.69-6.95-3.61-14.82-0.86-18.22
				c0.91-1.13,1.97-1.72,3.14-1.76c2.16-0.1,3.9,1.74,3.97,1.82c0.03,0.03,0.06,0.07,0.08,0.11l11.52,24.07
				c0.67-4.19,3.48-6.7,6.21-7.07c2.24-0.3,5.05,0.79,6.23,4.75c2.07,6.96,8.92,36.7,10.12,41.92c0.95-0.89,3.05-2.66,6.39-4.46
				c2.26-1.22,4.72-1.07,6.57,0.4c1.71,1.35,2.46,3.52,1.91,5.52c-1,3.64-3.61,13.12-3.89,14.16c0.24,1.58,2.54,18.12-6.78,22.28
				C350.88,357,350.82,357.02,350.76,357.02z M107.24,347.19c-0.06,0-0.12-0.01-0.17-0.04c-8.75-3.67-6.98-19.06-6.78-20.58
				c-0.3-0.99-2.91-9.71-3.91-13.07c-0.55-1.85,0.1-3.89,1.67-5.2c1.7-1.41,3.99-1.6,6.13-0.51c3.09,1.58,5.07,3.16,5.99,3.98
				c1.03-5.02,6.74-32.61,8.51-39.09c1.02-3.72,3.62-4.8,5.72-4.56c2.54,0.28,5.19,2.53,5.93,6.36l10.16-22.51
				c0.02-0.04,0.04-0.08,0.08-0.11c0.07-0.08,1.66-1.83,3.67-1.79c1.1,0.02,2.1,0.55,2.98,1.58c2.63,3.12,1.02,10.47-0.41,16.97
				c-0.18,0.81-0.35,1.61-0.52,2.39c-0.95,4.46-1.99,9.1-2.6,11.77l20.78-30.2c0.05-0.08,1.31-1.86,3.24-2.08
				c1.12-0.12,2.22,0.31,3.26,1.28c0.18,0.17,0.19,0.45,0.02,0.63c-0.17,0.18-0.45,0.19-0.63,0.02c-0.84-0.79-1.7-1.14-2.55-1.05
				c-1.52,0.16-2.59,1.68-2.61,1.7l-22.1,32.12c-0.12,0.18-0.35,0.24-0.55,0.16c-0.2-0.09-0.3-0.3-0.25-0.51
				c0.02-0.07,1.69-7.24,3.12-14.03c0.16-0.78,0.34-1.58,0.52-2.4c1.38-6.29,2.95-13.42,0.6-16.2c-0.7-0.83-1.47-1.25-2.31-1.27
				c-1.43,0-2.71,1.19-2.96,1.44l-10.79,23.9c-0.08,0.19-0.29,0.29-0.49,0.25c-0.2-0.04-0.35-0.21-0.36-0.42
				c-0.2-4.32-2.83-6.87-5.33-7.14c-2.21-0.24-4.04,1.25-4.76,3.91c-1.94,7.08-8.6,39.5-8.66,39.82c-0.03,0.16-0.15,0.29-0.31,0.34
				c-0.16,0.05-0.33,0-0.45-0.12c-0.02-0.02-2.15-2.21-6.35-4.36c-1.81-0.93-3.74-0.78-5.15,0.4c-1.29,1.07-1.83,2.75-1.38,4.26
				c1.06,3.56,3.94,13.16,3.94,13.16c0.02,0.06,0.02,0.13,0.01,0.19c-0.02,0.16-2.15,16.21,6.23,19.73c0.23,0.1,0.33,0.36,0.24,0.58
				C107.57,347.09,107.41,347.19,107.24,347.19z M240.77,234.39c-0.02,0-0.05,0-0.07-0.01c-14.19-2.27-30.72-13.07-37.38-36.4
				c-1.54,0.26-3.05-0.13-4.5-1.15c-4.44-3.12-7.09-11.36-7.45-14.27c-0.57-4.61,2.48-11.02,5.43-11.44c0.47-0.07,1-0.01,1.57,0.17
				c-1.72-11.33-2.81-22.55-1.79-32.84c-5.71-5.6-6.14-13.14-5.76-17.69c0.85-10.11,6.92-20.65,13-22.56c2.42-0.76,4.61-0.07,6.32,2
				c0.16,0.19,0.13,0.47-0.06,0.63c-0.19,0.16-0.47,0.13-0.63-0.06c-1.49-1.79-3.29-2.37-5.37-1.72
				c-5.77,1.81-11.56,11.99-12.38,21.78c-0.46,5.43,0.29,15.32,10.45,20.5c0.22,0.11,0.31,0.38,0.19,0.6
				c-0.11,0.22-0.38,0.31-0.6,0.2c-1.69-0.86-3.13-1.84-4.35-2.91c-1.31,14.53,1.56,30.96,4.33,46.86l0.72,4.11
				c4.87,28.2,23.02,40.88,38.38,43.33c0.24,0.04,0.41,0.27,0.37,0.51C241.18,234.23,240.99,234.39,240.77,234.39z M197.2,171.98
				c-0.09,0-0.19,0.01-0.27,0.02c-2.26,0.32-5.21,6.08-4.67,10.45c0.34,2.8,2.87,10.7,7.08,13.65c1.22,0.86,2.48,1.2,3.75,1.01
				c-0.58-2.16-1.09-4.42-1.5-6.79l-0.71-4.11c-0.81-4.62-1.62-9.28-2.34-13.93C198.03,172.08,197.58,171.98,197.2,171.98z"/>
		</g>
		<g>
			<path class="st9" d="M226.18,375.58c-14.78,0-28.9-5.5-39.77-15.5c-0.18-0.16-0.19-0.45-0.03-0.63c0.17-0.18,0.45-0.19,0.63-0.03
				c10.71,9.84,24.62,15.26,39.17,15.26c15.96,0,30.83-6.36,41.86-17.91c0.17-0.18,0.45-0.18,0.63-0.01
				c0.18,0.17,0.18,0.45,0.01,0.63C257.49,369.12,242.39,375.58,226.18,375.58z M169.49,303.42c-0.04,0-0.07,0-0.11-0.01
				c-0.24-0.06-0.39-0.3-0.33-0.54c5.31-21.86,22.96-38.98,44.97-43.61c0.24-0.05,0.48,0.1,0.53,0.34c0.05,0.24-0.1,0.48-0.34,0.53
				c-21.67,4.56-39.06,21.42-44.29,42.94C169.87,303.29,169.69,303.42,169.49,303.42z"/>
		</g>
	</g>
	<g>
		<g>
			<path class="st2" d="M323.79,126.89h58.23c1.73,0,3.31,0.71,4.46,1.85l0,0h0l0.01,0.01c1.14,1.14,1.85,2.72,1.85,4.45v22.63
				c0,1.74-0.71,3.32-1.85,4.46c-1.14,1.14-2.72,1.85-4.46,1.85h-58.23c-1.74,0-3.31-0.71-4.46-1.85l0,0
				c-1.14-1.14-1.85-2.72-1.85-4.46v-22.63c0-1.74,0.71-3.32,1.85-4.46C320.48,127.6,322.05,126.89,323.79,126.89z"/>
		</g>
		<g>
			<path class="st2" d="M318.37,122.95h58.23c2.98,0,5.42,2.44,5.42,5.42v22.63c0,2.98-2.44,5.42-5.42,5.42h-58.23
				c-2.98,0-5.42-2.44-5.42-5.42v-22.63C312.95,125.39,315.39,122.95,318.37,122.95z"/>
		</g>
		<g>
			<path class="st4" d="M333.26,139.35c0.94-0.48,1.47-1.33,1.47-2.37c0-1.69-1.41-2.86-4.28-2.86h-5.59v10.93h5.9
				c2.94,0,4.5-1.11,4.5-3C335.25,140.72,334.49,139.78,333.26,139.35L333.26,139.35z M330.04,136.35c1.03,0,1.56,0.36,1.56,1.05
				c0,0.7-0.53,1.06-1.56,1.06h-2.12v-2.11H330.04L330.04,136.35z M330.51,142.81h-2.59v-2.22h2.59c1.06,0,1.62,0.36,1.62,1.11
				C332.13,142.46,331.57,142.81,330.51,142.81L330.51,142.81z M341.91,145.27c3.23,0,5.14-1.83,5.14-5.09v-6.06H344v5.97
				c0,1.87-0.78,2.62-2.06,2.62c-1.3,0-2.08-0.75-2.08-2.62v-5.97h-3.09v6.06C336.77,143.44,338.68,145.27,341.91,145.27
				L341.91,145.27z M359.03,134.11h-3l-2.59,4.34l-2.59-4.34h-3.27l4.17,6.97v3.97h3.09v-3.92L359.03,134.11z"/>
		</g>
		<g>
			<g>
				<polygon class="st4" points="381.58,155.01 392.97,151.46 371.08,144.51 378.03,166.41 				"/>
				<path class="st9" d="M378.03,167.74c-0.58,0-1.1-0.38-1.27-0.93l-6.95-21.89c-0.15-0.48-0.02-1,0.33-1.35
					c0.35-0.35,0.87-0.48,1.35-0.33l21.89,6.95c0.56,0.18,0.93,0.69,0.93,1.28c0,0.58-0.38,1.1-0.94,1.27l-10.72,3.35l-3.35,10.72
					C379.13,167.36,378.61,167.74,378.03,167.74C378.03,167.74,378.03,167.74,378.03,167.74z M373.13,146.57l4.88,15.39l2.29-7.34
					c0.13-0.42,0.46-0.75,0.88-0.88l7.34-2.29L373.13,146.57z"/>
			</g>
			<g>
				<path class="st9" d="M365.39,139.72c-0.23,0-0.46-0.09-0.63-0.26l-0.84-0.84c-0.35-0.35-0.35-0.91,0-1.26
					c0.35-0.35,0.91-0.35,1.26,0l0.84,0.84c0.35,0.35,0.35,0.91,0,1.26C365.85,139.63,365.62,139.72,365.39,139.72z"/>
			</g>
			<g>
				<path class="st9" d="M363.04,145.4h-1.19c-0.49,0-0.89-0.4-0.89-0.89c0-0.49,0.4-0.89,0.89-0.89h1.19c0.49,0,0.89,0.4,0.89,0.89
					C363.93,145,363.53,145.4,363.04,145.4z"/>
			</g>
			<g>
				<path class="st9" d="M364.55,151.93c-0.23,0-0.46-0.09-0.63-0.26c-0.35-0.35-0.35-0.91,0-1.26l0.84-0.84
					c0.35-0.35,0.91-0.35,1.26,0c0.35,0.35,0.35,0.91,0,1.26l-0.84,0.84C365.01,151.84,364.78,151.93,364.55,151.93z"/>
			</g>
			<g>
				<path class="st9" d="M371.08,137.36c-0.49,0-0.89-0.4-0.89-0.89v-1.19c0-0.49,0.4-0.89,0.89-0.89c0.49,0,0.89,0.4,0.89,0.89
					v1.19C371.97,136.96,371.57,137.36,371.08,137.36z"/>
			</g>
			<g>
				<path class="st9" d="M376.76,139.72c-0.23,0-0.46-0.08-0.63-0.26c-0.35-0.35-0.35-0.91,0-1.26l0.84-0.84
					c0.35-0.35,0.91-0.35,1.26,0c0.35,0.35,0.35,0.91,0,1.26l-0.84,0.84C377.22,139.63,376.99,139.72,376.76,139.72z"/>
			</g>
		</g>
		<g>
			<path class="st9" d="M367.36,157.32h-48.99c-3.48,0-6.31-2.83-6.31-6.31v-22.63c0-3.48,2.83-6.31,6.31-6.31h58.23
				c3.48,0,6.31,2.83,6.31,6.31v22.63c0,0.49-0.4,0.89-0.89,0.89c-0.49,0-0.89-0.4-0.89-0.89v-22.63c0-2.5-2.03-4.53-4.53-4.53
				h-58.23c-2.5,0-4.53,2.03-4.53,4.53v22.63c0,2.5,2.03,4.53,4.53,4.53h48.99c0.49,0,0.89,0.4,0.89,0.89
				C368.25,156.92,367.85,157.32,367.36,157.32z"/>
		</g>
	</g>
	<g>
		<g>
			<g>
				<polygon class="st4" points="165.83,133.41 159.34,133.41 162.58,128.17 				"/>
				<path class="st9" d="M165.85,133.85c-0.01,0-0.01,0-0.02,0h-6.49c-0.16,0-0.31-0.09-0.39-0.23c-0.08-0.14-0.07-0.31,0.01-0.45
					l3.25-5.24c0.16-0.26,0.59-0.26,0.76,0l3.19,5.14c0.09,0.08,0.15,0.2,0.15,0.33C166.3,133.66,166.1,133.85,165.85,133.85z
					 M160.14,132.96h4.89l-2.45-3.95L160.14,132.96z"/>
			</g>
			<g>
				<path class="st12" d="M165.54,142.38L165.54,142.38c-0.15,0-0.3-0.08-0.38-0.21l-3.25-5.24c-0.09-0.14-0.09-0.31-0.01-0.45
					c0.08-0.14,0.23-0.23,0.39-0.23h6.5c0.16,0,0.31,0.09,0.39,0.23c0.08,0.14,0.08,0.31-0.01,0.45l-3.25,5.24
					C165.83,142.3,165.69,142.38,165.54,142.38z M163.09,137.15l2.45,3.95l2.45-3.95H163.09z"/>
			</g>
		</g>
		<g>
			<g>
				<polygon class="st4" points="328.45,201.04 321.96,201.04 325.21,206.28 				"/>
				<path class="st9" d="M325.21,206.72c-0.15,0-0.3-0.08-0.38-0.21l-3.25-5.24c-0.09-0.14-0.09-0.31-0.01-0.45
					c0.08-0.14,0.23-0.23,0.39-0.23h6.49c0.16,0,0.31,0.09,0.39,0.23c0.08,0.14,0.07,0.31-0.01,0.45l-3.25,5.24
					C325.5,206.64,325.36,206.72,325.21,206.72z M322.76,201.48l2.45,3.95l2.45-3.95H322.76z"/>
			</g>
			<g>
				<path class="st12" d="M331.43,198.19c-0.01,0-0.02,0-0.02,0h-6.5c-0.16,0-0.31-0.09-0.39-0.23c-0.08-0.14-0.08-0.31,0.01-0.45
					l3.25-5.24c0.16-0.26,0.59-0.26,0.76,0l3.18,5.14c0.09,0.08,0.15,0.2,0.15,0.33C331.87,197.99,331.67,198.19,331.43,198.19z
					 M325.71,197.3h4.89l-2.45-3.95L325.71,197.3z"/>
			</g>
		</g>
		<g>
			<g>
				<polygon class="st4" points="336.11,390.88 329.62,390.88 332.87,385.64 				"/>
				<path class="st9" d="M336.14,391.33c-0.01,0-0.01,0-0.02,0h-6.5c-0.16,0-0.31-0.09-0.39-0.23c-0.08-0.14-0.08-0.31,0.01-0.45
					l3.25-5.24c0.08-0.13,0.22-0.21,0.38-0.21l0,0c0.15,0,0.3,0.08,0.38,0.21l3.19,5.14c0.09,0.08,0.15,0.2,0.15,0.33
					C336.58,391.13,336.38,391.33,336.14,391.33z M330.42,390.44h4.89l-2.45-3.95L330.42,390.44z"/>
			</g>
			<g>
				<path class="st12" d="M335.82,399.86c-0.15,0-0.3-0.08-0.38-0.21l-3.25-5.24c-0.08-0.14-0.09-0.31-0.01-0.45
					c0.08-0.14,0.23-0.23,0.39-0.23h6.5c0.16,0,0.31,0.09,0.39,0.23c0.08,0.14,0.07,0.31-0.01,0.45l-3.25,5.24
					C336.12,399.78,335.97,399.86,335.82,399.86z M333.37,394.62l2.45,3.95l2.45-3.95H333.37z"/>
			</g>
		</g>
		<g>
			<g>
				<polygon class="st4" points="151.39,388.5 144.9,388.5 148.14,393.73 				"/>
				<path class="st9" d="M148.14,394.18c-0.15,0-0.3-0.08-0.38-0.21l-3.25-5.24c-0.09-0.14-0.09-0.31-0.01-0.45
					c0.08-0.14,0.23-0.23,0.39-0.23h6.5c0.16,0,0.31,0.09,0.39,0.23c0.08,0.14,0.07,0.31-0.01,0.45l-3.25,5.24
					C148.44,394.1,148.3,394.18,148.14,394.18z M145.7,388.94l2.45,3.95l2.45-3.95H145.7z"/>
			</g>
			<g>
				<path class="st12" d="M154.36,385.65c-0.01,0-0.01,0-0.02,0h-6.49c-0.16,0-0.31-0.09-0.39-0.23c-0.08-0.14-0.07-0.31,0.01-0.45
					l3.25-5.24c0.08-0.13,0.23-0.21,0.38-0.21l0,0c0.15,0,0.3,0.08,0.38,0.21l3.18,5.14c0.09,0.08,0.15,0.2,0.15,0.33
					C154.81,385.45,154.61,385.65,154.36,385.65z M148.65,384.76h4.89l-2.45-3.95L148.65,384.76z"/>
			</g>
		</g>
	</g>
</g>
</svg>
